<svg width="102" height="101" viewBox="0 0 102 101" fill="none" xmlns="http://www.w3.org/2000/svg">
<circle opacity="0.2" cx="50.9722" cy="50.5" r="45" fill="white" stroke="white"/>
<circle opacity="0.2" cx="50.9722" cy="50.5" r="50" fill="white" stroke="white"/>
<circle cx="50.9722" cy="50.5" r="41" fill="white" stroke="white"/>
<path d="M42.6389 33.848L38.4309 45H36.7509L32.5429 33.848H34.0949L37.5989 43.464L41.1029 33.848H42.6389ZM45.6914 33.848V45H44.2354V33.848H45.6914ZM49.6289 35.032V38.76H53.6929V39.96H49.6289V43.8H54.1729V45H48.1729V33.832H54.1729V35.032H49.6289ZM70.392 33.848L67.16 45H65.528L62.936 36.024L60.248 45L58.632 45.016L55.512 33.848H57.064L59.496 43.304L62.184 33.848H63.816L66.376 43.272L68.824 33.848H70.392ZM46.9993 66.52H42.1353L41.2393 69H39.7033L43.7353 57.912H45.4153L49.4313 69H47.8953L46.9993 66.52ZM46.5833 65.336L44.5673 59.704L42.5513 65.336H46.5833ZM52.6445 67.816H56.5485V69H51.1885V57.848H52.6445V67.816ZM59.5508 67.816H63.4548V69H58.0948V57.848H59.5508V67.816Z" fill="#406932"/>
</svg>
